<svg width="600" height="600" viewBox="0 0 600 600" fill="none" xmlns="http://www.w3.org/2000/svg">
<g clip-path="url(#clip0_3204_8770)">
<rect width="600" height="600" rx="120" fill="black"/>
<rect width="600" height="600" rx="16" fill="url(#paint0_linear_3204_8770)"/>
<path d="M179.498 262.813H164.865C164.675 262.813 164.13 262.895 164.048 263.086L146.744 287.529L139.032 276.82H122.001C127.424 284.422 132.71 292.025 138.133 299.437L113.036 334.699C112.491 335.325 112.845 336.061 113.772 336.061H128.432C128.596 336.061 129.141 335.979 129.25 335.789L146.744 311.345L154.32 322.055H171.351C165.955 314.452 160.56 306.849 155.164 299.437L180.425 264.176C180.888 263.549 180.507 262.813 179.498 262.813Z" fill="white"/>
<path d="M218.704 262.813H194.997C194.534 262.813 194.07 263.276 194.07 263.631V276.275H218.704C220.339 276.275 229.495 276.738 229.495 284.777C229.495 292.843 220.53 293.033 218.704 293.033H194.07V335.244C194.07 335.598 194.534 336.061 194.997 336.061H206.878C207.532 336.061 207.804 335.598 207.804 335.244V306.577H218.704C220.448 306.577 243.42 306.304 243.42 284.777C243.42 263.276 221.62 262.813 218.704 262.813Z" fill="white"/>
<path d="M290.765 322.409H269.973V305.95H298.722C299.267 305.95 299.73 305.487 299.73 305.105V293.497C299.73 293.033 299.267 292.652 298.722 292.652H269.973V276.084H290.765V262.813H256.975C256.43 262.813 255.967 263.276 255.967 263.631V335.244C255.967 335.598 256.43 336.061 256.975 336.061H290.765V322.409Z" fill="white"/>
<path d="M369.501 334.971L341.678 263.358C341.406 262.622 340.125 262.622 339.825 263.358L312.085 334.971C311.812 335.516 312.194 336.061 313.011 336.061H325.546C325.928 336.061 326.391 335.87 326.473 335.516L340.752 294.668L355.222 335.516C355.303 335.87 355.767 336.061 356.039 336.061H368.683C369.31 336.061 369.773 335.516 369.501 334.971Z" fill="white"/>
<path d="M407.14 262.813H383.432C382.969 262.813 382.506 263.276 382.506 263.631V276.275H407.14C408.775 276.275 417.931 276.738 417.931 284.777C417.931 292.843 408.966 293.033 407.14 293.033H382.506V335.244C382.506 335.598 382.969 336.061 383.432 336.061H395.313C395.967 336.061 396.24 335.598 396.24 335.244V306.577H407.14C408.884 306.577 431.856 306.304 431.856 284.777C431.856 263.276 410.056 262.813 407.14 262.813Z" fill="white"/>
<path d="M469.036 262.813H445.329C444.865 262.813 444.402 263.276 444.402 263.631V276.275H469.036C470.671 276.275 479.827 276.738 479.827 284.777C479.827 292.843 470.862 293.033 469.036 293.033H444.402V335.244C444.402 335.598 444.865 336.061 445.329 336.061H457.21C457.864 336.061 458.136 335.598 458.136 335.244V306.577H469.036C470.78 306.577 493.752 306.304 493.752 284.777C493.752 263.276 471.952 262.813 469.036 262.813Z" fill="white"/>
<path d="M517.973 214.169H407.535" stroke="white" stroke-width="13.08"/>
<path d="M511.439 319.409V211.546" stroke="white" stroke-width="13.08"/>
<path d="M82.0137 385.817H192.451" stroke="white" stroke-width="13.08"/>
<path d="M88.5469 280.578V388.44" stroke="white" stroke-width="13.08"/>
</g>
<defs>
<linearGradient id="paint0_linear_3204_8770" x1="300" y1="0" x2="300" y2="600" gradientUnits="userSpaceOnUse">
<stop stop-color="#C1DF8B"/>
<stop offset="0.5" stop-color="#A0CE4E"/>
<stop offset="1" stop-color="#79A42D"/>
</linearGradient>
<clipPath id="clip0_3204_8770">
<rect width="600" height="600" rx="120" fill="white"/>
</clipPath>
</defs>
</svg>
